<svg width="24" height="24" viewBox="0 0 24 24" fill="none" xmlns="http://www.w3.org/2000/svg">
<path d="M18.5576 4.52576C15.9857 4.53882 14.0298 6.32726 13.2981 9.17686C12.0702 7.19044 11.1122 4.91847 10.5626 3L7.85512 3.01307L7.88869 10.5556C7.89167 11.2727 7.6236 11.9617 7.14342 12.4712C6.66323 12.9807 6.01023 13.2689 5.32793 13.2726C4.64563 13.2757 3.99007 12.9939 3.50534 12.4892C3.02061 11.9845 2.74637 11.2982 2.74292 10.5811L2.70873 3.03855L0 3.05162L0.0335718 10.5941C0.0478708 13.7241 2.4271 16.2045 5.33912 16.1895C8.25114 16.1744 10.6099 13.6725 10.5962 10.5419L10.59 9.26115C11.1358 10.3962 11.8184 11.6024 12.5688 12.6668L10.9132 21L13.6885 20.9869L14.8821 14.9323C15.9682 15.6393 17.1824 16.0594 18.6098 16.0522C21.589 16.0372 24.0155 13.4647 23.9999 10.191C23.9886 8.68269 23.41 7.24036 22.3905 6.17884C21.371 5.11732 19.9933 4.52281 18.5582 4.5251L18.5576 4.52576ZM18.5962 13.136C17.5132 13.1412 16.4283 12.6485 15.5449 11.8696L15.8103 10.7307V10.6654C16.0093 9.45392 16.6073 7.38777 18.639 7.37863C19.3554 7.37738 20.0433 7.67356 20.5529 8.20271C21.0625 8.73186 21.3527 9.45116 21.3602 10.2041C21.2993 11.8409 20.0192 13.1281 18.5968 13.1353L18.5962 13.136Z" fill="url(#paint0_linear_568_37045)"/>
<defs>
<linearGradient id="paint0_linear_568_37045" x1="-0.102564" y1="12" x2="22.5641" y2="12" gradientUnits="userSpaceOnUse">
<stop stop-color="#F7EE7F"/>
<stop offset="1" stop-color="#77F96C"/>
</linearGradient>
</defs>
</svg>
