<svg width="500" height="500" viewBox="0 0 500 500" fill="none" xmlns="http://www.w3.org/2000/svg">
<g clip-path="url(#clip0_101_425)">
<path d="M78.3349 25.23C78.3369 25.8534 78.1538 26.4634 77.8089 26.9827C77.464 27.5021 76.9727 27.9074 76.3973 28.1473C75.8219 28.3873 75.1882 28.4511 74.5765 28.3307C73.9648 28.2102 73.4026 27.911 72.9611 27.4709C72.5195 27.0308 72.2185 26.4695 72.0962 25.8582C71.9738 25.2469 72.0356 24.613 72.2737 24.0368C72.5118 23.4607 72.9156 22.9681 73.4338 22.6215C73.952 22.275 74.5615 22.09 75.1849 22.09C76.0186 22.09 76.8183 22.4205 77.4088 23.009C77.9992 23.5976 78.3322 24.3963 78.3349 25.23Z" fill="#AAAAAA"/>
<path d="M128.325 25.23C128.325 25.851 128.141 26.4581 127.796 26.9745C127.451 27.4908 126.96 27.8933 126.387 28.1309C125.813 28.3686 125.181 28.4308 124.572 28.3096C123.963 28.1885 123.404 27.8894 122.965 27.4503C122.525 27.0111 122.226 26.4517 122.105 25.8426C121.984 25.2334 122.046 24.6021 122.284 24.0283C122.522 23.4546 122.924 22.9642 123.44 22.6192C123.957 22.2741 124.564 22.09 125.185 22.09C126.018 22.09 126.816 22.4208 127.405 23.0097C127.994 23.5985 128.325 24.3972 128.325 25.23Z" fill="#AAAAAA"/>
<path d="M178.325 25.23C178.325 25.851 178.141 26.4581 177.796 26.9745C177.451 27.4908 176.96 27.8933 176.387 28.1309C175.813 28.3686 175.181 28.4308 174.572 28.3096C173.963 28.1885 173.404 27.8894 172.965 27.4503C172.525 27.0111 172.226 26.4517 172.105 25.8426C171.984 25.2334 172.046 24.6021 172.284 24.0283C172.522 23.4546 172.924 22.9642 173.44 22.6192C173.957 22.2741 174.564 22.09 175.185 22.09C176.018 22.09 176.816 22.4208 177.405 23.0097C177.994 23.5985 178.325 24.3972 178.325 25.23Z" fill="#AAAAAA"/>
<path d="M228.325 25.23C228.325 25.851 228.141 26.4581 227.796 26.9745C227.451 27.4908 226.96 27.8933 226.387 28.1309C225.813 28.3686 225.181 28.4308 224.572 28.3096C223.963 28.1885 223.404 27.8894 222.965 27.4503C222.525 27.0111 222.226 26.4517 222.105 25.8426C221.984 25.2334 222.046 24.6021 222.284 24.0283C222.522 23.4546 222.924 22.9642 223.44 22.6192C223.957 22.2741 224.564 22.09 225.185 22.09C226.018 22.09 226.816 22.4208 227.405 23.0097C227.994 23.5985 228.325 24.3972 228.325 25.23Z" fill="#AAAAAA"/>
<path d="M278.325 25.23C278.325 25.851 278.141 26.4581 277.796 26.9745C277.451 27.4908 276.96 27.8933 276.387 28.1309C275.813 28.3686 275.181 28.4308 274.572 28.3096C273.963 28.1885 273.404 27.8894 272.965 27.4503C272.525 27.0111 272.226 26.4517 272.105 25.8426C271.984 25.2334 272.046 24.6021 272.284 24.0283C272.522 23.4546 272.924 22.9642 273.44 22.6192C273.957 22.2741 274.564 22.09 275.185 22.09C276.017 22.0926 276.814 22.4243 277.402 23.0126C277.991 23.6009 278.322 24.398 278.325 25.23Z" fill="#AAAAAA"/>
<path d="M328.325 25.23C328.327 25.8538 328.144 26.4642 327.798 26.9838C327.453 27.5033 326.961 27.9086 326.385 28.1483C325.809 28.3879 325.175 28.4512 324.563 28.3299C323.951 28.2087 323.389 27.9085 322.947 27.4674C322.506 27.0262 322.206 26.464 322.085 25.8521C321.964 25.2401 322.027 24.6059 322.267 24.0299C322.506 23.4539 322.912 22.962 323.431 22.6167C323.951 22.2713 324.561 22.088 325.185 22.09C326.017 22.0926 326.814 22.4243 327.402 23.0126C327.991 23.6009 328.322 24.398 328.325 25.23Z" fill="#AAAAAA"/>
<path d="M378.325 25.23C378.327 25.8534 378.144 26.4634 377.799 26.9827C377.454 27.5021 376.963 27.9074 376.387 28.1473C375.812 28.3873 375.178 28.4511 374.566 28.3307C373.955 28.2102 373.393 27.911 372.951 27.4709C372.509 27.0308 372.208 26.4695 372.086 25.8582C371.964 25.2469 372.026 24.613 372.264 24.0368C372.502 23.4607 372.906 22.9681 373.424 22.6215C373.942 22.275 374.551 22.09 375.175 22.09C376.009 22.09 376.808 22.4205 377.399 23.009C377.989 23.5976 378.322 24.3963 378.325 25.23Z" fill="#AAAAAA"/>
<path d="M428.325 25.23C428.327 25.8534 428.144 26.4634 427.799 26.9827C427.454 27.5021 426.963 27.9074 426.387 28.1473C425.812 28.3873 425.178 28.4511 424.566 28.3307C423.955 28.2102 423.393 27.911 422.951 27.4709C422.509 27.0308 422.208 26.4695 422.086 25.8582C421.964 25.2469 422.026 24.613 422.264 24.0368C422.502 23.4607 422.906 22.9681 423.424 22.6215C423.942 22.275 424.551 22.09 425.175 22.09C426.009 22.09 426.808 22.4205 427.399 23.009C427.989 23.5976 428.322 24.3963 428.325 25.23Z" fill="#AAAAAA"/>
<path d="M478.325 25.23C478.327 25.8534 478.144 26.4634 477.799 26.9827C477.454 27.5021 476.963 27.9074 476.387 28.1473C475.812 28.3873 475.178 28.4511 474.566 28.3307C473.955 28.2102 473.393 27.911 472.951 27.4709C472.509 27.0308 472.208 26.4695 472.086 25.8582C471.964 25.2469 472.026 24.613 472.264 24.0368C472.502 23.4607 472.906 22.9681 473.424 22.6215C473.942 22.275 474.551 22.09 475.175 22.09C476.009 22.09 476.808 22.4205 477.399 23.009C477.989 23.5976 478.322 24.3963 478.325 25.23Z" fill="#AAAAAA"/>
<path d="M28.3349 25.23C28.3369 25.8534 28.1538 26.4634 27.8089 26.9827C27.464 27.5021 26.9727 27.9074 26.3973 28.1473C25.8219 28.3873 25.1882 28.4511 24.5765 28.3307C23.9648 28.2102 23.4026 27.911 22.9611 27.4709C22.5195 27.0308 22.2185 26.4695 22.0962 25.8582C21.9738 25.2469 22.0356 24.613 22.2737 24.0368C22.5119 23.4607 22.9156 22.9681 23.4338 22.6215C23.952 22.275 24.5615 22.09 25.1849 22.09C26.0186 22.09 26.8183 22.4205 27.4088 23.009C27.9992 23.5976 28.3323 24.3963 28.3349 25.23Z" fill="#AAAAAA"/>
<path d="M78.3349 75.25C78.3349 75.873 78.1501 76.482 77.804 77C77.4579 77.518 76.9659 77.9218 76.3903 78.1602C75.8148 78.3986 75.1814 78.461 74.5703 78.3394C73.9593 78.2179 73.398 77.9179 72.9575 77.4774C72.517 77.0368 72.217 76.4755 72.0954 75.8645C71.9739 75.2535 72.0362 74.6201 72.2747 74.0445C72.5131 73.4689 72.9168 72.977 73.4348 72.6308C73.9529 72.2847 74.5619 72.1 75.1849 72.1C76.0203 72.1 76.8215 72.4319 77.4123 73.0226C78.003 73.6133 78.3349 74.4145 78.3349 75.25Z" fill="#AAAAAA"/>
<path d="M128.325 75.25C128.323 75.8706 128.137 76.4767 127.791 76.9917C127.445 77.5068 126.954 77.9077 126.38 78.1438C125.806 78.3799 125.175 78.4407 124.566 78.3184C123.958 78.1961 123.399 77.8963 122.961 77.4568C122.523 77.0172 122.225 76.4577 122.104 75.8489C121.984 75.2401 122.047 74.6092 122.285 74.036C122.523 73.4629 122.925 72.9731 123.441 72.6285C123.958 72.2839 124.564 72.1 125.185 72.1C125.598 72.1 126.007 72.1815 126.389 72.34C126.77 72.4984 127.117 72.7306 127.409 73.0232C127.7 73.3158 127.932 73.6632 128.089 74.0453C128.246 74.4274 128.326 74.8368 128.325 75.25Z" fill="#AAAAAA"/>
<path d="M178.325 75.25C178.323 75.8706 178.137 76.4767 177.791 76.9917C177.445 77.5068 176.954 77.9077 176.38 78.1438C175.806 78.3799 175.175 78.4407 174.566 78.3184C173.958 78.1961 173.399 77.8963 172.961 77.4568C172.523 77.0172 172.225 76.4577 172.105 75.8489C171.984 75.2401 172.047 74.6092 172.285 74.036C172.523 73.4629 172.925 72.9731 173.441 72.6285C173.958 72.2839 174.564 72.1 175.185 72.1C175.598 72.1 176.007 72.1815 176.389 72.34C176.77 72.4984 177.117 72.7306 177.409 73.0232C177.7 73.3158 177.932 73.6632 178.089 74.0453C178.246 74.4274 178.326 74.8368 178.325 75.25Z" fill="#AAAAAA"/>
<path d="M228.325 75.25C228.323 75.8706 228.137 76.4767 227.791 76.9917C227.445 77.5068 226.954 77.9077 226.38 78.1438C225.806 78.3799 225.175 78.4407 224.566 78.3184C223.958 78.1961 223.399 77.8963 222.961 77.4568C222.523 77.0172 222.225 76.4577 222.105 75.8489C221.984 75.2401 222.047 74.6092 222.285 74.036C222.523 73.4629 222.925 72.9731 223.441 72.6285C223.958 72.2839 224.564 72.1 225.185 72.1C225.598 72.1 226.007 72.1815 226.389 72.34C226.77 72.4984 227.117 72.7306 227.409 73.0232C227.7 73.3158 227.932 73.6632 228.089 74.0453C228.246 74.4274 228.326 74.8368 228.325 75.25Z" fill="#AAAAAA"/>
<path d="M278.325 75.25C278.323 75.8706 278.137 76.4767 277.791 76.9917C277.445 77.5068 276.954 77.9077 276.38 78.1438C275.806 78.3799 275.175 78.4407 274.566 78.3184C273.958 78.1961 273.399 77.8963 272.961 77.4568C272.523 77.0172 272.225 76.4577 272.105 75.8489C271.984 75.2401 272.047 74.6092 272.285 74.036C272.523 73.4629 272.925 72.9731 273.441 72.6285C273.958 72.2839 274.564 72.1 275.185 72.1C276.019 72.1026 276.817 72.4357 277.406 73.0261C277.994 73.6166 278.325 74.4163 278.325 75.25Z" fill="#AAAAAA"/>
<path d="M328.325 75.25C328.325 75.8734 328.14 76.4828 327.793 77.0011C327.447 77.5193 326.954 77.923 326.378 78.1612C325.802 78.3993 325.168 78.4611 324.557 78.3387C323.945 78.2164 323.384 77.9154 322.944 77.4738C322.504 77.0323 322.205 76.4701 322.084 75.8584C321.964 75.2467 322.028 74.613 322.268 74.0376C322.507 73.4622 322.913 72.9709 323.432 72.626C323.951 72.2811 324.561 72.098 325.185 72.1C326.019 72.1026 326.817 72.4357 327.406 73.0261C327.994 73.6166 328.325 74.4163 328.325 75.25Z" fill="#AAAAAA"/>
<path d="M378.325 75.25C378.325 75.873 378.14 76.482 377.794 77C377.448 77.518 376.956 77.9218 376.38 78.1602C375.805 78.3986 375.171 78.461 374.56 78.3394C373.949 78.2179 373.388 77.9179 372.947 77.4774C372.507 77.0368 372.207 76.4755 372.085 75.8645C371.964 75.2535 372.026 74.6201 372.265 74.0445C372.503 73.4689 372.907 72.977 373.425 72.6308C373.943 72.2847 374.552 72.1 375.175 72.1C376.01 72.1 376.812 72.4319 377.402 73.0226C377.993 73.6133 378.325 74.4145 378.325 75.25Z" fill="#AAAAAA"/>
<path d="M428.325 75.25C428.325 75.873 428.14 76.482 427.794 77C427.448 77.518 426.956 77.9218 426.38 78.1602C425.805 78.3986 425.171 78.461 424.56 78.3394C423.949 78.2179 423.388 77.9179 422.947 77.4774C422.507 77.0368 422.207 76.4755 422.085 75.8645C421.964 75.2535 422.026 74.6201 422.265 74.0445C422.503 73.4689 422.907 72.977 423.425 72.6308C423.943 72.2847 424.552 72.1 425.175 72.1C426.01 72.1 426.812 72.4319 427.402 73.0226C427.993 73.6133 428.325 74.4145 428.325 75.25Z" fill="#AAAAAA"/>
<path d="M478.325 75.25C478.325 75.873 478.14 76.482 477.794 77C477.448 77.518 476.956 77.9218 476.38 78.1602C475.805 78.3986 475.171 78.461 474.56 78.3394C473.949 78.2179 473.388 77.9179 472.947 77.4774C472.507 77.0368 472.207 76.4755 472.085 75.8645C471.964 75.2535 472.026 74.6201 472.265 74.0445C472.503 73.4689 472.907 72.977 473.425 72.6308C473.943 72.2847 474.552 72.1 475.175 72.1C476.01 72.1 476.812 72.4319 477.402 73.0226C477.993 73.6133 478.325 74.4145 478.325 75.25Z" fill="#AAAAAA"/>
<path d="M28.3349 75.25C28.3349 75.873 28.1501 76.482 27.804 77C27.4579 77.518 26.9659 77.9218 26.3903 78.1602C25.8147 78.3986 25.1814 78.461 24.5703 78.3394C23.9593 78.2179 23.398 77.9179 22.9575 77.4774C22.517 77.0368 22.217 76.4755 22.0954 75.8645C21.9739 75.2535 22.0362 74.6201 22.2747 74.0445C22.5131 73.4689 22.9168 72.977 23.4348 72.6308C23.9529 72.2847 24.5619 72.1 25.1849 72.1C26.0203 72.1 26.8215 72.4319 27.4123 73.0226C28.003 73.6133 28.3349 74.4145 28.3349 75.25Z" fill="#AAAAAA"/>
<path d="M78.3349 125.26C78.3369 125.883 78.1538 126.493 77.8089 127.013C77.464 127.532 76.9727 127.937 76.3973 128.177C75.8219 128.417 75.1882 128.481 74.5765 128.361C73.9648 128.24 73.4026 127.941 72.9611 127.501C72.5195 127.061 72.2185 126.5 72.0962 125.888C71.9738 125.277 72.0356 124.643 72.2737 124.067C72.5118 123.491 72.9156 122.998 73.4338 122.652C73.952 122.305 74.5615 122.12 75.1849 122.12C75.5981 122.119 76.0075 122.199 76.3896 122.356C76.7717 122.513 77.119 122.744 77.4117 123.036C77.7043 123.328 77.9365 123.674 78.0949 124.056C78.2534 124.438 78.3349 124.847 78.3349 125.26Z" fill="#AAAAAA"/>
<path d="M128.325 125.26C128.325 125.881 128.141 126.488 127.796 127.004C127.451 127.521 126.96 127.923 126.387 128.161C125.813 128.399 125.181 128.461 124.572 128.34C123.963 128.219 123.404 127.919 122.965 127.48C122.525 127.041 122.226 126.482 122.105 125.873C121.984 125.263 122.046 124.632 122.284 124.058C122.522 123.485 122.924 122.994 123.44 122.649C123.957 122.304 124.564 122.12 125.185 122.12C125.598 122.119 126.007 122.199 126.388 122.356C126.77 122.514 127.116 122.745 127.408 123.037C127.7 123.329 127.931 123.675 128.089 124.057C128.246 124.438 128.326 124.847 128.325 125.26Z" fill="#AAAAAA"/>
<path d="M178.325 125.26C178.325 125.881 178.141 126.488 177.796 127.004C177.451 127.521 176.96 127.923 176.387 128.161C175.813 128.399 175.181 128.461 174.572 128.34C173.963 128.219 173.404 127.919 172.965 127.48C172.525 127.041 172.226 126.482 172.105 125.873C171.984 125.263 172.046 124.632 172.284 124.058C172.522 123.485 172.924 122.994 173.44 122.649C173.957 122.304 174.564 122.12 175.185 122.12C175.598 122.119 176.007 122.199 176.388 122.356C176.77 122.514 177.116 122.745 177.408 123.037C177.7 123.329 177.931 123.675 178.089 124.057C178.246 124.438 178.326 124.847 178.325 125.26Z" fill="#AAAAAA"/>
<path d="M228.325 125.26C228.325 125.881 228.141 126.488 227.796 127.004C227.451 127.521 226.96 127.923 226.387 128.161C225.813 128.399 225.181 128.461 224.572 128.34C223.963 128.219 223.404 127.919 222.965 127.48C222.525 127.041 222.226 126.482 222.105 125.873C221.984 125.263 222.046 124.632 222.284 124.058C222.522 123.485 222.924 122.994 223.44 122.649C223.957 122.304 224.564 122.12 225.185 122.12C225.598 122.119 226.007 122.199 226.388 122.356C226.77 122.514 227.116 122.745 227.408 123.037C227.7 123.329 227.931 123.675 228.089 124.057C228.246 124.438 228.326 124.847 228.325 125.26Z" fill="#AAAAAA"/>
<path d="M278.325 125.26C278.325 125.881 278.141 126.488 277.796 127.004C277.451 127.521 276.96 127.923 276.387 128.161C275.813 128.399 275.181 128.461 274.572 128.34C273.963 128.219 273.404 127.919 272.965 127.48C272.525 127.041 272.226 126.482 272.105 125.873C271.984 125.263 272.046 124.632 272.284 124.058C272.522 123.485 272.924 122.994 273.44 122.649C273.957 122.304 274.564 122.12 275.185 122.12C276.018 122.12 276.816 122.451 277.405 123.04C277.994 123.629 278.325 124.427 278.325 125.26Z" fill="#AAAAAA"/>
<path d="M328.325 125.26C328.327 125.884 328.144 126.494 327.798 127.014C327.453 127.533 326.961 127.939 326.385 128.178C325.809 128.418 325.175 128.481 324.563 128.36C323.951 128.239 323.389 127.939 322.947 127.497C322.506 127.056 322.206 126.494 322.085 125.882C321.964 125.27 322.027 124.636 322.267 124.06C322.506 123.484 322.912 122.992 323.431 122.647C323.951 122.301 324.561 122.118 325.185 122.12C326.018 122.12 326.816 122.451 327.405 123.04C327.994 123.629 328.325 124.427 328.325 125.26Z" fill="#AAAAAA"/>
<path d="M378.325 125.26C378.327 125.883 378.144 126.493 377.799 127.013C377.454 127.532 376.963 127.937 376.387 128.177C375.812 128.417 375.178 128.481 374.566 128.361C373.955 128.24 373.393 127.941 372.951 127.501C372.509 127.061 372.208 126.5 372.086 125.888C371.964 125.277 372.026 124.643 372.264 124.067C372.502 123.491 372.906 122.998 373.424 122.652C373.942 122.305 374.551 122.12 375.175 122.12C375.588 122.119 375.997 122.199 376.38 122.356C376.762 122.513 377.109 122.744 377.402 123.036C377.694 123.328 377.926 123.674 378.085 124.056C378.243 124.438 378.325 124.847 378.325 125.26Z" fill="#AAAAAA"/>
<path d="M428.325 125.26C428.327 125.883 428.144 126.493 427.799 127.013C427.454 127.532 426.963 127.937 426.387 128.177C425.812 128.417 425.178 128.481 424.566 128.361C423.955 128.24 423.393 127.941 422.951 127.501C422.509 127.061 422.208 126.5 422.086 125.888C421.964 125.277 422.026 124.643 422.264 124.067C422.502 123.491 422.906 122.998 423.424 122.652C423.942 122.305 424.551 122.12 425.175 122.12C425.588 122.119 425.997 122.199 426.38 122.356C426.762 122.513 427.109 122.744 427.402 123.036C427.694 123.328 427.926 123.674 428.085 124.056C428.243 124.438 428.325 124.847 428.325 125.26Z" fill="#AAAAAA"/>
<path d="M478.325 125.26C478.327 125.883 478.144 126.493 477.799 127.013C477.454 127.532 476.963 127.937 476.387 128.177C475.812 128.417 475.178 128.481 474.566 128.361C473.955 128.24 473.393 127.941 472.951 127.501C472.509 127.061 472.208 126.5 472.086 125.888C471.964 125.277 472.026 124.643 472.264 124.067C472.502 123.491 472.906 122.998 473.424 122.652C473.942 122.305 474.551 122.12 475.175 122.12C475.588 122.119 475.997 122.199 476.38 122.356C476.762 122.513 477.109 122.744 477.402 123.036C477.694 123.328 477.926 123.674 478.085 124.056C478.243 124.438 478.325 124.847 478.325 125.26Z" fill="#AAAAAA"/>
<path d="M28.3349 125.26C28.3369 125.883 28.1538 126.493 27.8089 127.013C27.464 127.532 26.9727 127.937 26.3973 128.177C25.8219 128.417 25.1882 128.481 24.5765 128.361C23.9648 128.24 23.4026 127.941 22.9611 127.501C22.5195 127.061 22.2185 126.5 22.0962 125.888C21.9738 125.277 22.0356 124.643 22.2737 124.067C22.5119 123.491 22.9156 122.998 23.4338 122.652C23.952 122.305 24.5615 122.12 25.1849 122.12C25.5981 122.119 26.0075 122.199 26.3896 122.356C26.7717 122.513 27.119 122.744 27.4117 123.036C27.7043 123.328 27.9365 123.674 28.0949 124.056C28.2534 124.438 28.3349 124.847 28.3349 125.26Z" fill="#AAAAAA"/>
<path d="M78.3349 175.28C78.3349 175.903 78.1501 176.512 77.804 177.03C77.4579 177.548 76.9659 177.952 76.3903 178.19C75.8148 178.429 75.1814 178.491 74.5703 178.369C73.9593 178.248 73.398 177.948 72.9575 177.507C72.517 177.067 72.217 176.506 72.0954 175.895C71.9739 175.284 72.0362 174.65 72.2747 174.075C72.5131 173.499 72.9168 173.007 73.4348 172.661C73.9529 172.315 74.5619 172.13 75.1849 172.13C76.0203 172.13 76.8215 172.462 77.4123 173.053C78.003 173.643 78.3349 174.445 78.3349 175.28Z" fill="#AAAAAA"/>
<path d="M128.325 175.28C128.323 175.901 128.137 176.507 127.791 177.022C127.445 177.537 126.954 177.938 126.38 178.174C125.806 178.41 125.175 178.471 124.566 178.348C123.958 178.226 123.399 177.926 122.961 177.487C122.523 177.047 122.225 176.488 122.104 175.879C121.984 175.27 122.047 174.639 122.285 174.066C122.523 173.493 122.925 173.003 123.441 172.659C123.958 172.314 124.564 172.13 125.185 172.13C125.598 172.13 126.007 172.212 126.389 172.37C126.77 172.528 127.117 172.761 127.409 173.053C127.7 173.346 127.932 173.693 128.089 174.075C128.246 174.457 128.326 174.867 128.325 175.28Z" fill="#AAAAAA"/>
<path d="M178.325 175.28C178.323 175.901 178.137 176.507 177.791 177.022C177.445 177.537 176.954 177.938 176.38 178.174C175.806 178.41 175.175 178.471 174.566 178.348C173.958 178.226 173.399 177.926 172.961 177.487C172.523 177.047 172.225 176.488 172.105 175.879C171.984 175.27 172.047 174.639 172.285 174.066C172.523 173.493 172.925 173.003 173.441 172.659C173.958 172.314 174.564 172.13 175.185 172.13C175.598 172.13 176.007 172.212 176.389 172.37C176.77 172.528 177.117 172.761 177.409 173.053C177.7 173.346 177.932 173.693 178.089 174.075C178.246 174.457 178.326 174.867 178.325 175.28Z" fill="#AAAAAA"/>
<path d="M228.325 175.28C228.323 175.901 228.137 176.507 227.791 177.022C227.445 177.537 226.954 177.938 226.38 178.174C225.806 178.41 225.175 178.471 224.566 178.348C223.958 178.226 223.399 177.926 222.961 177.487C222.523 177.047 222.225 176.488 222.105 175.879C221.984 175.27 222.047 174.639 222.285 174.066C222.523 173.493 222.925 173.003 223.441 172.659C223.958 172.314 224.564 172.13 225.185 172.13C225.598 172.13 226.007 172.212 226.389 172.37C226.77 172.528 227.117 172.761 227.409 173.053C227.7 173.346 227.932 173.693 228.089 174.075C228.246 174.457 228.326 174.867 228.325 175.28Z" fill="#AAAAAA"/>
<path d="M278.325 175.28C278.323 175.901 278.137 176.507 277.791 177.022C277.445 177.537 276.954 177.938 276.38 178.174C275.806 178.41 275.175 178.471 274.566 178.348C273.958 178.226 273.399 177.926 272.961 177.487C272.523 177.047 272.225 176.488 272.105 175.879C271.984 175.27 272.047 174.639 272.285 174.066C272.523 173.493 272.925 173.003 273.441 172.659C273.958 172.314 274.564 172.13 275.185 172.13C276.019 172.133 276.817 172.466 277.406 173.056C277.994 173.647 278.325 174.446 278.325 175.28Z" fill="#AAAAAA"/>
<path d="M328.325 175.28C328.325 175.903 328.14 176.513 327.793 177.031C327.447 177.549 326.954 177.953 326.378 178.191C325.802 178.429 325.168 178.491 324.557 178.369C323.945 178.246 323.384 177.945 322.944 177.504C322.504 177.062 322.205 176.5 322.084 175.888C321.964 175.277 322.028 174.643 322.268 174.068C322.507 173.492 322.913 173.001 323.432 172.656C323.951 172.311 324.561 172.128 325.185 172.13C326.019 172.133 326.817 172.466 327.406 173.056C327.994 173.647 328.325 174.446 328.325 175.28Z" fill="#AAAAAA"/>
<path d="M378.325 175.28C378.325 175.903 378.14 176.512 377.794 177.03C377.448 177.548 376.956 177.952 376.38 178.19C375.805 178.429 375.171 178.491 374.56 178.369C373.949 178.248 373.388 177.948 372.947 177.507C372.507 177.067 372.207 176.506 372.085 175.895C371.964 175.284 372.026 174.65 372.265 174.075C372.503 173.499 372.907 173.007 373.425 172.661C373.943 172.315 374.552 172.13 375.175 172.13C376.01 172.13 376.812 172.462 377.402 173.053C377.993 173.643 378.325 174.445 378.325 175.28Z" fill="#AAAAAA"/>
<path d="M428.325 175.28C428.325 175.903 428.14 176.512 427.794 177.03C427.448 177.548 426.956 177.952 426.38 178.19C425.805 178.429 425.171 178.491 424.56 178.369C423.949 178.248 423.388 177.948 422.947 177.507C422.507 177.067 422.207 176.506 422.085 175.895C421.964 175.284 422.026 174.65 422.265 174.075C422.503 173.499 422.907 173.007 423.425 172.661C423.943 172.315 424.552 172.13 425.175 172.13C426.01 172.13 426.812 172.462 427.402 173.053C427.993 173.643 428.325 174.445 428.325 175.28Z" fill="#AAAAAA"/>
<path d="M478.325 175.28C478.325 175.903 478.14 176.512 477.794 177.03C477.448 177.548 476.956 177.952 476.38 178.19C475.805 178.429 475.171 178.491 474.56 178.369C473.949 178.248 473.388 177.948 472.947 177.507C472.507 177.067 472.207 176.506 472.085 175.895C471.964 175.284 472.026 174.65 472.265 174.075C472.503 173.499 472.907 173.007 473.425 172.661C473.943 172.315 474.552 172.13 475.175 172.13C476.01 172.13 476.812 172.462 477.402 173.053C477.993 173.643 478.325 174.445 478.325 175.28Z" fill="#AAAAAA"/>
<path d="M28.3349 175.28C28.3349 175.903 28.1501 176.512 27.804 177.03C27.4579 177.548 26.9659 177.952 26.3903 178.19C25.8147 178.429 25.1814 178.491 24.5703 178.369C23.9593 178.248 23.398 177.948 22.9575 177.507C22.517 177.067 22.217 176.506 22.0954 175.895C21.9739 175.284 22.0362 174.65 22.2747 174.075C22.5131 173.499 22.9168 173.007 23.4348 172.661C23.9529 172.315 24.5619 172.13 25.1849 172.13C26.0203 172.13 26.8215 172.462 27.4123 173.053C28.003 173.643 28.3349 174.445 28.3349 175.28Z" fill="#AAAAAA"/>
<path d="M78.3349 225.29C78.3369 225.913 78.1538 226.523 77.8089 227.043C77.464 227.562 76.9727 227.967 76.3973 228.207C75.8219 228.447 75.1882 228.511 74.5765 228.391C73.9648 228.27 73.4026 227.971 72.9611 227.531C72.5195 227.091 72.2185 226.53 72.0962 225.918C71.9738 225.307 72.0356 224.673 72.2737 224.097C72.5118 223.521 72.9156 223.028 73.4338 222.682C73.952 222.335 74.5615 222.15 75.1849 222.15C75.5981 222.149 76.0075 222.229 76.3896 222.386C76.7717 222.543 77.119 222.774 77.4117 223.066C77.7043 223.358 77.9365 223.704 78.0949 224.086C78.2534 224.468 78.3349 224.877 78.3349 225.29Z" fill="#AAAAAA"/>
<path d="M128.325 225.29C128.325 225.911 128.141 226.518 127.796 227.035C127.451 227.551 126.96 227.953 126.387 228.191C125.813 228.429 125.181 228.491 124.572 228.37C123.963 228.249 123.404 227.949 122.965 227.51C122.525 227.071 122.226 226.512 122.105 225.903C121.984 225.294 122.046 224.662 122.284 224.088C122.522 223.515 122.924 223.024 123.44 222.679C123.957 222.334 124.564 222.15 125.185 222.15C125.598 222.149 126.007 222.229 126.388 222.386C126.77 222.544 127.116 222.775 127.408 223.067C127.7 223.359 127.931 223.705 128.089 224.087C128.246 224.468 128.326 224.877 128.325 225.29Z" fill="#AAAAAA"/>
<path d="M178.325 225.29C178.325 225.911 178.141 226.518 177.796 227.035C177.451 227.551 176.96 227.953 176.387 228.191C175.813 228.429 175.181 228.491 174.572 228.37C173.963 228.249 173.404 227.949 172.965 227.51C172.525 227.071 172.226 226.512 172.105 225.903C171.984 225.294 172.046 224.662 172.284 224.088C172.522 223.515 172.924 223.024 173.44 222.679C173.957 222.334 174.564 222.15 175.185 222.15C175.598 222.149 176.007 222.229 176.388 222.386C176.77 222.544 177.116 222.775 177.408 223.067C177.7 223.359 177.931 223.705 178.089 224.087C178.246 224.468 178.326 224.877 178.325 225.29Z" fill="#AAAAAA"/>
<path d="M228.325 225.29C228.325 225.911 228.141 226.518 227.796 227.035C227.451 227.551 226.96 227.953 226.387 228.191C225.813 228.429 225.181 228.491 224.572 228.37C223.963 228.249 223.404 227.949 222.965 227.51C222.525 227.071 222.226 226.512 222.105 225.903C221.984 225.294 222.046 224.662 222.284 224.088C222.522 223.515 222.924 223.024 223.44 222.679C223.957 222.334 224.564 222.15 225.185 222.15C225.598 222.149 226.007 222.229 226.388 222.386C226.77 222.544 227.116 222.775 227.408 223.067C227.7 223.359 227.931 223.705 228.089 224.087C228.246 224.468 228.326 224.877 228.325 225.29Z" fill="#AAAAAA"/>
<path d="M278.325 225.29C278.325 225.911 278.141 226.518 277.796 227.035C277.451 227.551 276.96 227.953 276.387 228.191C275.813 228.429 275.181 228.491 274.572 228.37C273.963 228.249 273.404 227.949 272.965 227.51C272.525 227.071 272.226 226.512 272.105 225.903C271.984 225.294 272.046 224.662 272.284 224.088C272.522 223.515 272.924 223.024 273.44 222.679C273.957 222.334 274.564 222.15 275.185 222.15C276.018 222.15 276.816 222.481 277.405 223.07C277.994 223.659 278.325 224.457 278.325 225.29Z" fill="#AAAAAA"/>
<path d="M328.325 225.29C328.327 225.914 328.144 226.524 327.798 227.044C327.453 227.563 326.961 227.969 326.385 228.208C325.809 228.448 325.175 228.511 324.563 228.39C323.951 228.269 323.389 227.969 322.947 227.527C322.506 227.086 322.206 226.524 322.085 225.912C321.964 225.3 322.027 224.666 322.267 224.09C322.506 223.514 322.912 223.022 323.431 222.677C323.951 222.331 324.561 222.148 325.185 222.15C326.018 222.15 326.816 222.481 327.405 223.07C327.994 223.659 328.325 224.457 328.325 225.29Z" fill="#AAAAAA"/>
<path d="M378.325 225.29C378.327 225.913 378.144 226.523 377.799 227.043C377.454 227.562 376.963 227.967 376.387 228.207C375.812 228.447 375.178 228.511 374.566 228.391C373.955 228.27 373.393 227.971 372.951 227.531C372.509 227.091 372.208 226.53 372.086 225.918C371.964 225.307 372.026 224.673 372.264 224.097C372.502 223.521 372.906 223.028 373.424 222.682C373.942 222.335 374.551 222.15 375.175 222.15C375.588 222.149 375.997 222.229 376.38 222.386C376.762 222.543 377.109 222.774 377.402 223.066C377.694 223.358 377.926 223.704 378.085 224.086C378.243 224.468 378.325 224.877 378.325 225.29Z" fill="#AAAAAA"/>
<path d="M428.325 225.29C428.327 225.913 428.144 226.523 427.799 227.043C427.454 227.562 426.963 227.967 426.387 228.207C425.812 228.447 425.178 228.511 424.566 228.391C423.955 228.27 423.393 227.971 422.951 227.531C422.509 227.091 422.208 226.53 422.086 225.918C421.964 225.307 422.026 224.673 422.264 224.097C422.502 223.521 422.906 223.028 423.424 222.682C423.942 222.335 424.551 222.15 425.175 222.15C425.588 222.149 425.997 222.229 426.38 222.386C426.762 222.543 427.109 222.774 427.402 223.066C427.694 223.358 427.926 223.704 428.085 224.086C428.243 224.468 428.325 224.877 428.325 225.29Z" fill="#AAAAAA"/>
<path d="M478.325 225.29C478.327 225.913 478.144 226.523 477.799 227.043C477.454 227.562 476.963 227.967 476.387 228.207C475.812 228.447 475.178 228.511 474.566 228.391C473.955 228.27 473.393 227.971 472.951 227.531C472.509 227.091 472.208 226.53 472.086 225.918C471.964 225.307 472.026 224.673 472.264 224.097C472.502 223.521 472.906 223.028 473.424 222.682C473.942 222.335 474.551 222.15 475.175 222.15C475.588 222.149 475.997 222.229 476.38 222.386C476.762 222.543 477.109 222.774 477.402 223.066C477.694 223.358 477.926 223.704 478.085 224.086C478.243 224.468 478.325 224.877 478.325 225.29Z" fill="#AAAAAA"/>
<path d="M28.3349 225.29C28.3369 225.913 28.1538 226.523 27.8089 227.043C27.464 227.562 26.9727 227.967 26.3973 228.207C25.8219 228.447 25.1882 228.511 24.5765 228.391C23.9648 228.27 23.4026 227.971 22.9611 227.531C22.5195 227.091 22.2185 226.53 22.0962 225.918C21.9738 225.307 22.0356 224.673 22.2737 224.097C22.5119 223.521 22.9156 223.028 23.4338 222.682C23.952 222.335 24.5615 222.15 25.1849 222.15C25.5981 222.149 26.0075 222.229 26.3896 222.386C26.7717 222.543 27.119 222.774 27.4117 223.066C27.7043 223.358 27.9365 223.704 28.0949 224.086C28.2534 224.468 28.3349 224.877 28.3349 225.29Z" fill="#AAAAAA"/>
<path d="M78.3349 275.31C78.3369 275.933 78.1538 276.543 77.8089 277.063C77.464 277.582 76.9727 277.987 76.3973 278.227C75.8219 278.467 75.1882 278.531 74.5765 278.411C73.9648 278.29 73.4026 277.991 72.9611 277.551C72.5195 277.111 72.2185 276.549 72.0962 275.938C71.9738 275.327 72.0356 274.693 72.2737 274.117C72.5118 273.541 72.9156 273.048 73.4338 272.702C73.952 272.355 74.5615 272.17 75.1849 272.17C76.0186 272.17 76.8183 272.5 77.4088 273.089C77.9992 273.678 78.3322 274.476 78.3349 275.31Z" fill="#AAAAAA"/>
<path d="M128.325 275.31C128.325 275.931 128.141 276.538 127.796 277.054C127.451 277.571 126.96 277.973 126.387 278.211C125.813 278.449 125.181 278.511 124.572 278.39C123.963 278.268 123.404 277.969 122.965 277.53C122.525 277.091 122.226 276.532 122.105 275.923C121.984 275.313 122.046 274.682 122.284 274.108C122.522 273.535 122.924 273.044 123.44 272.699C123.957 272.354 124.564 272.17 125.185 272.17C126.018 272.17 126.816 272.501 127.405 273.09C127.994 273.678 128.325 274.477 128.325 275.31Z" fill="#AAAAAA"/>
<path d="M178.325 275.31C178.325 275.931 178.141 276.538 177.796 277.054C177.451 277.571 176.96 277.973 176.387 278.211C175.813 278.449 175.181 278.511 174.572 278.39C173.963 278.268 173.404 277.969 172.965 277.53C172.525 277.091 172.226 276.532 172.105 275.923C171.984 275.313 172.046 274.682 172.284 274.108C172.522 273.535 172.924 273.044 173.44 272.699C173.957 272.354 174.564 272.17 175.185 272.17C176.018 272.17 176.816 272.501 177.405 273.09C177.994 273.678 178.325 274.477 178.325 275.31Z" fill="#AAAAAA"/>
<path d="M228.325 275.31C228.325 275.931 228.141 276.538 227.796 277.054C227.451 277.571 226.96 277.973 226.387 278.211C225.813 278.449 225.181 278.511 224.572 278.39C223.963 278.268 223.404 277.969 222.965 277.53C222.525 277.091 222.226 276.532 222.105 275.923C221.984 275.313 222.046 274.682 222.284 274.108C222.522 273.535 222.924 273.044 223.44 272.699C223.957 272.354 224.564 272.17 225.185 272.17C226.018 272.17 226.816 272.501 227.405 273.09C227.994 273.678 228.325 274.477 228.325 275.31Z" fill="#AAAAAA"/>
<path d="M278.325 275.31C278.325 275.931 278.141 276.538 277.796 277.054C277.451 277.571 276.96 277.973 276.387 278.211C275.813 278.449 275.181 278.511 274.572 278.39C273.963 278.268 273.404 277.969 272.965 277.53C272.525 277.091 272.226 276.532 272.105 275.923C271.984 275.313 272.046 274.682 272.284 274.108C272.522 273.535 272.924 273.044 273.44 272.699C273.957 272.354 274.564 272.17 275.185 272.17C276.017 272.173 276.814 272.504 277.402 273.093C277.991 273.681 278.322 274.478 278.325 275.31Z" fill="#AAAAAA"/>
<path d="M328.325 275.31C328.327 275.934 328.144 276.544 327.798 277.064C327.453 277.583 326.961 277.989 326.385 278.228C325.809 278.468 325.175 278.531 324.563 278.41C323.951 278.289 323.389 277.988 322.947 277.547C322.506 277.106 322.206 276.544 322.085 275.932C321.964 275.32 322.027 274.686 322.267 274.11C322.506 273.534 322.912 273.042 323.431 272.697C323.951 272.351 324.561 272.168 325.185 272.17C326.017 272.173 326.814 272.504 327.402 273.093C327.991 273.681 328.322 274.478 328.325 275.31Z" fill="#AAAAAA"/>
<path d="M378.325 275.31C378.327 275.933 378.144 276.543 377.799 277.063C377.454 277.582 376.963 277.987 376.387 278.227C375.812 278.467 375.178 278.531 374.566 278.411C373.955 278.29 373.393 277.991 372.951 277.551C372.509 277.111 372.208 276.549 372.086 275.938C371.964 275.327 372.026 274.693 372.264 274.117C372.502 273.541 372.906 273.048 373.424 272.702C373.942 272.355 374.551 272.17 375.175 272.17C376.009 272.17 376.808 272.5 377.399 273.089C377.989 273.678 378.322 274.476 378.325 275.31Z" fill="#AAAAAA"/>
<path d="M428.325 275.31C428.327 275.933 428.144 276.543 427.799 277.063C427.454 277.582 426.963 277.987 426.387 278.227C425.812 278.467 425.178 278.531 424.566 278.411C423.955 278.29 423.393 277.991 422.951 277.551C422.509 277.111 422.208 276.549 422.086 275.938C421.964 275.327 422.026 274.693 422.264 274.117C422.502 273.541 422.906 273.048 423.424 272.702C423.942 272.355 424.551 272.17 425.175 272.17C426.009 272.17 426.808 272.5 427.399 273.089C427.989 273.678 428.322 274.476 428.325 275.31Z" fill="#AAAAAA"/>
<path d="M478.325 275.31C478.327 275.933 478.144 276.543 477.799 277.063C477.454 277.582 476.963 277.987 476.387 278.227C475.812 278.467 475.178 278.531 474.566 278.411C473.955 278.29 473.393 277.991 472.951 277.551C472.509 277.111 472.208 276.549 472.086 275.938C471.964 275.327 472.026 274.693 472.264 274.117C472.502 273.541 472.906 273.048 473.424 272.702C473.942 272.355 474.551 272.17 475.175 272.17C476.009 272.17 476.808 272.5 477.399 273.089C477.989 273.678 478.322 274.476 478.325 275.31Z" fill="#AAAAAA"/>
<path d="M28.3349 275.31C28.3369 275.933 28.1538 276.543 27.8089 277.063C27.464 277.582 26.9727 277.987 26.3973 278.227C25.8219 278.467 25.1882 278.531 24.5765 278.411C23.9648 278.29 23.4026 277.991 22.9611 277.551C22.5195 277.111 22.2185 276.549 22.0962 275.938C21.9738 275.327 22.0356 274.693 22.2737 274.117C22.5119 273.541 22.9156 273.048 23.4338 272.702C23.952 272.355 24.5615 272.17 25.1849 272.17C26.0186 272.17 26.8183 272.5 27.4088 273.089C27.9992 273.678 28.3323 274.476 28.3349 275.31Z" fill="#AAAAAA"/>
<path d="M78.3349 325.32C78.3369 325.943 78.1538 326.553 77.8089 327.073C77.464 327.592 76.9727 327.997 76.3973 328.237C75.8219 328.477 75.1882 328.541 74.5765 328.421C73.9648 328.3 73.4026 328.001 72.9611 327.561C72.5195 327.121 72.2185 326.559 72.0962 325.948C71.9738 325.337 72.0356 324.703 72.2737 324.127C72.5118 323.551 72.9156 323.058 73.4338 322.712C73.952 322.365 74.5615 322.18 75.1849 322.18C75.5981 322.179 76.0075 322.259 76.3896 322.416C76.7717 322.573 77.119 322.804 77.4117 323.096C77.7043 323.388 77.9365 323.734 78.0949 324.116C78.2534 324.498 78.3349 324.907 78.3349 325.32Z" fill="#AAAAAA"/>
<path d="M128.325 325.32C128.325 325.941 128.141 326.548 127.796 327.064C127.451 327.581 126.96 327.983 126.387 328.221C125.813 328.459 125.181 328.521 124.572 328.4C123.963 328.278 123.404 327.979 122.965 327.54C122.525 327.101 122.226 326.542 122.105 325.933C121.984 325.323 122.046 324.692 122.284 324.118C122.522 323.545 122.924 323.054 123.44 322.709C123.957 322.364 124.564 322.18 125.185 322.18C125.598 322.179 126.007 322.259 126.388 322.416C126.77 322.574 127.116 322.805 127.408 323.097C127.7 323.389 127.931 323.735 128.089 324.117C128.246 324.498 128.326 324.907 128.325 325.32Z" fill="#AAAAAA"/>
<path d="M178.325 325.32C178.325 325.941 178.141 326.548 177.796 327.064C177.451 327.581 176.96 327.983 176.387 328.221C175.813 328.459 175.181 328.521 174.572 328.4C173.963 328.278 173.404 327.979 172.965 327.54C172.525 327.101 172.226 326.542 172.105 325.933C171.984 325.323 172.046 324.692 172.284 324.118C172.522 323.545 172.924 323.054 173.44 322.709C173.957 322.364 174.564 322.18 175.185 322.18C175.598 322.179 176.007 322.259 176.388 322.416C176.77 322.574 177.116 322.805 177.408 323.097C177.7 323.389 177.931 323.735 178.089 324.117C178.246 324.498 178.326 324.907 178.325 325.32Z" fill="#AAAAAA"/>
<path d="M228.325 325.32C228.325 325.941 228.141 326.548 227.796 327.064C227.451 327.581 226.96 327.983 226.387 328.221C225.813 328.459 225.181 328.521 224.572 328.4C223.963 328.278 223.404 327.979 222.965 327.54C222.525 327.101 222.226 326.542 222.105 325.933C221.984 325.323 222.046 324.692 222.284 324.118C222.522 323.545 222.924 323.054 223.44 322.709C223.957 322.364 224.564 322.18 225.185 322.18C225.598 322.179 226.007 322.259 226.388 322.416C226.77 322.574 227.116 322.805 227.408 323.097C227.7 323.389 227.931 323.735 228.089 324.117C228.246 324.498 228.326 324.907 228.325 325.32Z" fill="#AAAAAA"/>
<path d="M278.325 325.32C278.325 325.941 278.141 326.548 277.796 327.064C277.451 327.581 276.96 327.983 276.387 328.221C275.813 328.459 275.181 328.521 274.572 328.4C273.963 328.278 273.404 327.979 272.965 327.54C272.525 327.101 272.226 326.542 272.105 325.933C271.984 325.323 272.046 324.692 272.284 324.118C272.522 323.545 272.924 323.054 273.44 322.709C273.957 322.364 274.564 322.18 275.185 322.18C276.018 322.18 276.816 322.511 277.405 323.1C277.994 323.688 278.325 324.487 278.325 325.32Z" fill="#AAAAAA"/>
<path d="M328.325 325.32C328.327 325.944 328.144 326.554 327.798 327.074C327.453 327.593 326.961 327.999 326.385 328.238C325.809 328.478 325.175 328.541 324.563 328.42C323.951 328.299 323.389 327.998 322.947 327.557C322.506 327.116 322.206 326.554 322.085 325.942C321.964 325.33 322.027 324.696 322.267 324.12C322.506 323.544 322.912 323.052 323.431 322.707C323.951 322.361 324.561 322.178 325.185 322.18C326.018 322.18 326.816 322.511 327.405 323.1C327.994 323.688 328.325 324.487 328.325 325.32Z" fill="#AAAAAA"/>
<path d="M378.325 325.32C378.327 325.943 378.144 326.553 377.799 327.073C377.454 327.592 376.963 327.997 376.387 328.237C375.812 328.477 375.178 328.541 374.566 328.421C373.955 328.3 373.393 328.001 372.951 327.561C372.509 327.121 372.208 326.559 372.086 325.948C371.964 325.337 372.026 324.703 372.264 324.127C372.502 323.551 372.906 323.058 373.424 322.712C373.942 322.365 374.551 322.18 375.175 322.18C375.588 322.179 375.997 322.259 376.38 322.416C376.762 322.573 377.109 322.804 377.402 323.096C377.694 323.388 377.926 323.734 378.085 324.116C378.243 324.498 378.325 324.907 378.325 325.32Z" fill="#AAAAAA"/>
<path d="M428.325 325.32C428.327 325.943 428.144 326.553 427.799 327.073C427.454 327.592 426.963 327.997 426.387 328.237C425.812 328.477 425.178 328.541 424.566 328.421C423.955 328.3 423.393 328.001 422.951 327.561C422.509 327.121 422.208 326.559 422.086 325.948C421.964 325.337 422.026 324.703 422.264 324.127C422.502 323.551 422.906 323.058 423.424 322.712C423.942 322.365 424.551 322.18 425.175 322.18C425.588 322.179 425.997 322.259 426.38 322.416C426.762 322.573 427.109 322.804 427.402 323.096C427.694 323.388 427.926 323.734 428.085 324.116C428.243 324.498 428.325 324.907 428.325 325.32Z" fill="#AAAAAA"/>
<path d="M478.325 325.32C478.327 325.943 478.144 326.553 477.799 327.073C477.454 327.592 476.963 327.997 476.387 328.237C475.812 328.477 475.178 328.541 474.566 328.421C473.955 328.3 473.393 328.001 472.951 327.561C472.509 327.121 472.208 326.559 472.086 325.948C471.964 325.337 472.026 324.703 472.264 324.127C472.502 323.551 472.906 323.058 473.424 322.712C473.942 322.365 474.551 322.18 475.175 322.18C475.588 322.179 475.997 322.259 476.38 322.416C476.762 322.573 477.109 322.804 477.402 323.096C477.694 323.388 477.926 323.734 478.085 324.116C478.243 324.498 478.325 324.907 478.325 325.32Z" fill="#AAAAAA"/>
<path d="M28.3349 325.32C28.3369 325.943 28.1538 326.553 27.8089 327.073C27.464 327.592 26.9727 327.997 26.3973 328.237C25.8219 328.477 25.1882 328.541 24.5765 328.421C23.9648 328.3 23.4026 328.001 22.9611 327.561C22.5195 327.121 22.2185 326.559 22.0962 325.948C21.9738 325.337 22.0356 324.703 22.2737 324.127C22.5119 323.551 22.9156 323.058 23.4338 322.712C23.952 322.365 24.5615 322.18 25.1849 322.18C25.5981 322.179 26.0075 322.259 26.3896 322.416C26.7717 322.573 27.119 322.804 27.4117 323.096C27.7043 323.388 27.9365 323.734 28.0949 324.116C28.2534 324.498 28.3349 324.907 28.3349 325.32Z" fill="#AAAAAA"/>
<path d="M78.3349 375.34C78.3369 375.963 78.1538 376.573 77.8089 377.093C77.464 377.612 76.9727 378.017 76.3973 378.257C75.8219 378.497 75.1882 378.561 74.5765 378.441C73.9648 378.32 73.4026 378.021 72.9611 377.581C72.5195 377.141 72.2185 376.579 72.0962 375.968C71.9738 375.357 72.0356 374.723 72.2737 374.147C72.5118 373.571 72.9156 373.078 73.4338 372.732C73.952 372.385 74.5615 372.2 75.1849 372.2C76.0186 372.2 76.8183 372.53 77.4088 373.119C77.9992 373.708 78.3322 374.506 78.3349 375.34Z" fill="#AAAAAA"/>
<path d="M128.325 375.34C128.325 375.961 128.141 376.568 127.796 377.084C127.451 377.601 126.96 378.003 126.387 378.241C125.813 378.479 125.181 378.541 124.572 378.42C123.963 378.298 123.404 377.999 122.965 377.56C122.525 377.121 122.226 376.562 122.105 375.953C121.984 375.343 122.046 374.712 122.284 374.138C122.522 373.565 122.924 373.074 123.44 372.729C123.957 372.384 124.564 372.2 125.185 372.2C126.018 372.2 126.816 372.531 127.405 373.12C127.994 373.709 128.325 374.507 128.325 375.34Z" fill="#AAAAAA"/>
<path d="M178.325 375.34C178.325 375.961 178.141 376.568 177.796 377.084C177.451 377.601 176.96 378.003 176.387 378.241C175.813 378.479 175.181 378.541 174.572 378.42C173.963 378.298 173.404 377.999 172.965 377.56C172.525 377.121 172.226 376.562 172.105 375.953C171.984 375.343 172.046 374.712 172.284 374.138C172.522 373.565 172.924 373.074 173.44 372.729C173.957 372.384 174.564 372.2 175.185 372.2C176.018 372.2 176.816 372.531 177.405 373.12C177.994 373.709 178.325 374.507 178.325 375.34Z" fill="#AAAAAA"/>
<path d="M228.325 375.34C228.325 375.961 228.141 376.568 227.796 377.084C227.451 377.601 226.96 378.003 226.387 378.241C225.813 378.479 225.181 378.541 224.572 378.42C223.963 378.298 223.404 377.999 222.965 377.56C222.525 377.121 222.226 376.562 222.105 375.953C221.984 375.343 222.046 374.712 222.284 374.138C222.522 373.565 222.924 373.074 223.44 372.729C223.957 372.384 224.564 372.2 225.185 372.2C226.018 372.2 226.816 372.531 227.405 373.12C227.994 373.709 228.325 374.507 228.325 375.34Z" fill="#AAAAAA"/>
<path d="M278.325 375.34C278.325 375.961 278.141 376.568 277.796 377.084C277.451 377.601 276.96 378.003 276.387 378.241C275.813 378.479 275.181 378.541 274.572 378.42C273.963 378.298 273.404 377.999 272.965 377.56C272.525 377.121 272.226 376.562 272.105 375.953C271.984 375.343 272.046 374.712 272.284 374.138C272.522 373.565 272.924 373.074 273.44 372.729C273.957 372.384 274.564 372.2 275.185 372.2C276.017 372.203 276.814 372.534 277.402 373.123C277.991 373.711 278.322 374.508 278.325 375.34Z" fill="#AAAAAA"/>
<path d="M328.325 375.34C328.327 375.964 328.144 376.574 327.798 377.094C327.453 377.613 326.961 378.019 326.385 378.258C325.809 378.498 325.175 378.561 324.563 378.44C323.951 378.319 323.389 378.018 322.947 377.577C322.506 377.136 322.206 376.574 322.085 375.962C321.964 375.35 322.027 374.716 322.267 374.14C322.506 373.564 322.912 373.072 323.431 372.727C323.951 372.381 324.561 372.198 325.185 372.2C326.017 372.203 326.814 372.534 327.402 373.123C327.991 373.711 328.322 374.508 328.325 375.34Z" fill="#AAAAAA"/>
<path d="M378.325 375.34C378.327 375.963 378.144 376.573 377.799 377.093C377.454 377.612 376.963 378.017 376.387 378.257C375.812 378.497 375.178 378.561 374.566 378.441C373.955 378.32 373.393 378.021 372.951 377.581C372.509 377.141 372.208 376.579 372.086 375.968C371.964 375.357 372.026 374.723 372.264 374.147C372.502 373.571 372.906 373.078 373.424 372.732C373.942 372.385 374.551 372.2 375.175 372.2C376.009 372.2 376.808 372.53 377.399 373.119C377.989 373.708 378.322 374.506 378.325 375.34Z" fill="#AAAAAA"/>
<path d="M428.325 375.34C428.327 375.963 428.144 376.573 427.799 377.093C427.454 377.612 426.963 378.017 426.387 378.257C425.812 378.497 425.178 378.561 424.566 378.441C423.955 378.32 423.393 378.021 422.951 377.581C422.509 377.141 422.208 376.579 422.086 375.968C421.964 375.357 422.026 374.723 422.264 374.147C422.502 373.571 422.906 373.078 423.424 372.732C423.942 372.385 424.551 372.2 425.175 372.2C426.009 372.2 426.808 372.53 427.399 373.119C427.989 373.708 428.322 374.506 428.325 375.34Z" fill="#AAAAAA"/>
<path d="M478.325 375.34C478.327 375.963 478.144 376.573 477.799 377.093C477.454 377.612 476.963 378.017 476.387 378.257C475.812 378.497 475.178 378.561 474.566 378.441C473.955 378.32 473.393 378.021 472.951 377.581C472.509 377.141 472.208 376.579 472.086 375.968C471.964 375.357 472.026 374.723 472.264 374.147C472.502 373.571 472.906 373.078 473.424 372.732C473.942 372.385 474.551 372.2 475.175 372.2C476.009 372.2 476.808 372.53 477.399 373.119C477.989 373.708 478.322 374.506 478.325 375.34Z" fill="#AAAAAA"/>
<path d="M28.3349 375.34C28.3369 375.963 28.1538 376.573 27.8089 377.093C27.464 377.612 26.9727 378.017 26.3973 378.257C25.8219 378.497 25.1882 378.561 24.5765 378.441C23.9648 378.32 23.4026 378.021 22.9611 377.581C22.5195 377.141 22.2185 376.579 22.0962 375.968C21.9738 375.357 22.0356 374.723 22.2737 374.147C22.5119 373.571 22.9156 373.078 23.4338 372.732C23.952 372.385 24.5615 372.2 25.1849 372.2C26.0186 372.2 26.8183 372.53 27.4088 373.119C27.9992 373.708 28.3323 374.506 28.3349 375.34Z" fill="#AAAAAA"/>
<path d="M78.3349 425.35C78.3369 425.973 78.1538 426.583 77.8089 427.103C77.464 427.622 76.9727 428.027 76.3973 428.267C75.8219 428.507 75.1882 428.571 74.5765 428.451C73.9648 428.33 73.4026 428.031 72.9611 427.591C72.5195 427.151 72.2185 426.589 72.0962 425.978C71.9738 425.367 72.0356 424.733 72.2737 424.157C72.5118 423.581 72.9156 423.088 73.4338 422.742C73.952 422.395 74.5615 422.21 75.1849 422.21C76.0186 422.21 76.8183 422.54 77.4088 423.129C77.9992 423.718 78.3322 424.516 78.3349 425.35Z" fill="#AAAAAA"/>
<path d="M128.325 425.35C128.325 425.971 128.141 426.578 127.796 427.094C127.451 427.611 126.96 428.013 126.387 428.251C125.813 428.489 125.181 428.551 124.572 428.43C123.963 428.308 123.404 428.009 122.965 427.57C122.525 427.131 122.226 426.572 122.105 425.963C121.984 425.353 122.046 424.722 122.284 424.148C122.522 423.575 122.924 423.084 123.44 422.739C123.957 422.394 124.564 422.21 125.185 422.21C126.018 422.21 126.816 422.541 127.405 423.13C127.994 423.719 128.325 424.517 128.325 425.35Z" fill="#AAAAAA"/>
<path d="M178.325 425.35C178.325 425.971 178.141 426.578 177.796 427.094C177.451 427.611 176.96 428.013 176.387 428.251C175.813 428.489 175.181 428.551 174.572 428.43C173.963 428.308 173.404 428.009 172.965 427.57C172.525 427.131 172.226 426.572 172.105 425.963C171.984 425.353 172.046 424.722 172.284 424.148C172.522 423.575 172.924 423.084 173.44 422.739C173.957 422.394 174.564 422.21 175.185 422.21C176.018 422.21 176.816 422.541 177.405 423.13C177.994 423.719 178.325 424.517 178.325 425.35Z" fill="#AAAAAA"/>
<path d="M228.325 425.35C228.325 425.971 228.141 426.578 227.796 427.094C227.451 427.611 226.96 428.013 226.387 428.251C225.813 428.489 225.181 428.551 224.572 428.43C223.963 428.308 223.404 428.009 222.965 427.57C222.525 427.131 222.226 426.572 222.105 425.963C221.984 425.353 222.046 424.722 222.284 424.148C222.522 423.575 222.924 423.084 223.44 422.739C223.957 422.394 224.564 422.21 225.185 422.21C226.018 422.21 226.816 422.541 227.405 423.13C227.994 423.719 228.325 424.517 228.325 425.35Z" fill="#AAAAAA"/>
<path d="M278.325 425.35C278.325 425.971 278.141 426.578 277.796 427.094C277.451 427.611 276.96 428.013 276.387 428.251C275.813 428.489 275.181 428.551 274.572 428.43C273.963 428.308 273.404 428.009 272.965 427.57C272.525 427.131 272.226 426.572 272.105 425.963C271.984 425.353 272.046 424.722 272.284 424.148C272.522 423.575 272.924 423.084 273.44 422.739C273.957 422.394 274.564 422.21 275.185 422.21C276.017 422.213 276.814 422.544 277.402 423.133C277.991 423.721 278.322 424.518 278.325 425.35Z" fill="#AAAAAA"/>
<path d="M328.325 425.35C328.327 425.974 328.144 426.584 327.798 427.104C327.453 427.623 326.961 428.029 326.385 428.268C325.809 428.508 325.175 428.571 324.563 428.45C323.951 428.329 323.389 428.028 322.947 427.587C322.506 427.146 322.206 426.584 322.085 425.972C321.964 425.36 322.027 424.726 322.267 424.15C322.506 423.574 322.912 423.082 323.431 422.737C323.951 422.391 324.561 422.208 325.185 422.21C326.017 422.213 326.814 422.544 327.402 423.133C327.991 423.721 328.322 424.518 328.325 425.35Z" fill="#AAAAAA"/>
<path d="M378.325 425.35C378.327 425.973 378.144 426.583 377.799 427.103C377.454 427.622 376.963 428.027 376.387 428.267C375.812 428.507 375.178 428.571 374.566 428.451C373.955 428.33 373.393 428.031 372.951 427.591C372.509 427.151 372.208 426.589 372.086 425.978C371.964 425.367 372.026 424.733 372.264 424.157C372.502 423.581 372.906 423.088 373.424 422.742C373.942 422.395 374.551 422.21 375.175 422.21C376.009 422.21 376.808 422.54 377.399 423.129C377.989 423.718 378.322 424.516 378.325 425.35Z" fill="#AAAAAA"/>
<path d="M428.325 425.35C428.327 425.973 428.144 426.583 427.799 427.103C427.454 427.622 426.963 428.027 426.387 428.267C425.812 428.507 425.178 428.571 424.566 428.451C423.955 428.33 423.393 428.031 422.951 427.591C422.509 427.151 422.208 426.589 422.086 425.978C421.964 425.367 422.026 424.733 422.264 424.157C422.502 423.581 422.906 423.088 423.424 422.742C423.942 422.395 424.551 422.21 425.175 422.21C426.009 422.21 426.808 422.54 427.399 423.129C427.989 423.718 428.322 424.516 428.325 425.35Z" fill="#AAAAAA"/>
<path d="M478.325 425.35C478.327 425.973 478.144 426.583 477.799 427.103C477.454 427.622 476.963 428.027 476.387 428.267C475.812 428.507 475.178 428.571 474.566 428.451C473.955 428.33 473.393 428.031 472.951 427.591C472.509 427.151 472.208 426.589 472.086 425.978C471.964 425.367 472.026 424.733 472.264 424.157C472.502 423.581 472.906 423.088 473.424 422.742C473.942 422.395 474.551 422.21 475.175 422.21C476.009 422.21 476.808 422.54 477.399 423.129C477.989 423.718 478.322 424.516 478.325 425.35Z" fill="#AAAAAA"/>
<path d="M28.3349 425.35C28.3369 425.973 28.1538 426.583 27.8089 427.103C27.464 427.622 26.9727 428.027 26.3973 428.267C25.8219 428.507 25.1882 428.571 24.5765 428.451C23.9648 428.33 23.4026 428.031 22.9611 427.591C22.5195 427.151 22.2185 426.589 22.0962 425.978C21.9738 425.367 22.0356 424.733 22.2737 424.157C22.5119 423.581 22.9156 423.088 23.4338 422.742C23.952 422.395 24.5615 422.21 25.1849 422.21C26.0186 422.21 26.8183 422.54 27.4088 423.129C27.9992 423.718 28.3323 424.516 28.3349 425.35Z" fill="#AAAAAA"/>
<path d="M78.3349 475.37C78.3369 475.993 78.1538 476.603 77.8089 477.123C77.464 477.642 76.9727 478.047 76.3973 478.287C75.8219 478.527 75.1882 478.591 74.5765 478.471C73.9648 478.35 73.4026 478.051 72.9611 477.611C72.5195 477.171 72.2185 476.61 72.0962 475.998C71.9738 475.387 72.0356 474.753 72.2737 474.177C72.5118 473.601 72.9156 473.108 73.4338 472.762C73.952 472.415 74.5615 472.23 75.1849 472.23C76.0186 472.23 76.8183 472.56 77.4088 473.149C77.9992 473.738 78.3322 474.536 78.3349 475.37Z" fill="#AAAAAA"/>
<path d="M128.325 475.37C128.325 475.991 128.141 476.598 127.796 477.114C127.451 477.631 126.96 478.033 126.387 478.271C125.813 478.509 125.181 478.571 124.572 478.45C123.963 478.328 123.404 478.029 122.965 477.59C122.525 477.151 122.226 476.592 122.105 475.983C121.984 475.373 122.046 474.742 122.284 474.168C122.522 473.595 122.924 473.104 123.44 472.759C123.957 472.414 124.564 472.23 125.185 472.23C126.018 472.23 126.816 472.561 127.405 473.15C127.994 473.739 128.325 474.537 128.325 475.37Z" fill="#AAAAAA"/>
<path d="M178.325 475.37C178.325 475.991 178.141 476.598 177.796 477.114C177.451 477.631 176.96 478.033 176.387 478.271C175.813 478.509 175.181 478.571 174.572 478.45C173.963 478.328 173.404 478.029 172.965 477.59C172.525 477.151 172.226 476.592 172.105 475.983C171.984 475.373 172.046 474.742 172.284 474.168C172.522 473.595 172.924 473.104 173.44 472.759C173.957 472.414 174.564 472.23 175.185 472.23C176.018 472.23 176.816 472.561 177.405 473.15C177.994 473.739 178.325 474.537 178.325 475.37Z" fill="#AAAAAA"/>
<path d="M228.325 475.37C228.325 475.991 228.141 476.598 227.796 477.114C227.451 477.631 226.96 478.033 226.387 478.271C225.813 478.509 225.181 478.571 224.572 478.45C223.963 478.328 223.404 478.029 222.965 477.59C222.525 477.151 222.226 476.592 222.105 475.983C221.984 475.373 222.046 474.742 222.284 474.168C222.522 473.595 222.924 473.104 223.44 472.759C223.957 472.414 224.564 472.23 225.185 472.23C226.018 472.23 226.816 472.561 227.405 473.15C227.994 473.739 228.325 474.537 228.325 475.37Z" fill="#AAAAAA"/>
<path d="M278.325 475.37C278.325 475.991 278.141 476.598 277.796 477.114C277.451 477.631 276.96 478.033 276.387 478.271C275.813 478.509 275.181 478.571 274.572 478.45C273.963 478.328 273.404 478.029 272.965 477.59C272.525 477.151 272.226 476.592 272.105 475.983C271.984 475.373 272.046 474.742 272.284 474.168C272.522 473.595 272.924 473.104 273.44 472.759C273.957 472.414 274.564 472.23 275.185 472.23C276.017 472.233 276.814 472.564 277.402 473.153C277.991 473.741 278.322 474.538 278.325 475.37Z" fill="#AAAAAA"/>
<path d="M328.325 475.37C328.327 475.994 328.144 476.604 327.798 477.124C327.453 477.643 326.961 478.049 326.385 478.288C325.809 478.528 325.175 478.591 324.563 478.47C323.951 478.349 323.389 478.049 322.947 477.607C322.506 477.166 322.206 476.604 322.085 475.992C321.964 475.38 322.027 474.746 322.267 474.17C322.506 473.594 322.912 473.102 323.431 472.757C323.951 472.411 324.561 472.228 325.185 472.23C326.017 472.233 326.814 472.564 327.402 473.153C327.991 473.741 328.322 474.538 328.325 475.37Z" fill="#AAAAAA"/>
<path d="M378.325 475.37C378.327 475.993 378.144 476.603 377.799 477.123C377.454 477.642 376.963 478.047 376.387 478.287C375.812 478.527 375.178 478.591 374.566 478.471C373.955 478.35 373.393 478.051 372.951 477.611C372.509 477.171 372.208 476.61 372.086 475.998C371.964 475.387 372.026 474.753 372.264 474.177C372.502 473.601 372.906 473.108 373.424 472.762C373.942 472.415 374.551 472.23 375.175 472.23C376.009 472.23 376.808 472.56 377.399 473.149C377.989 473.738 378.322 474.536 378.325 475.37Z" fill="#AAAAAA"/>
<path d="M428.325 475.37C428.327 475.993 428.144 476.603 427.799 477.123C427.454 477.642 426.963 478.047 426.387 478.287C425.812 478.527 425.178 478.591 424.566 478.471C423.955 478.35 423.393 478.051 422.951 477.611C422.509 477.171 422.208 476.61 422.086 475.998C421.964 475.387 422.026 474.753 422.264 474.177C422.502 473.601 422.906 473.108 423.424 472.762C423.942 472.415 424.551 472.23 425.175 472.23C426.009 472.23 426.808 472.56 427.399 473.149C427.989 473.738 428.322 474.536 428.325 475.37Z" fill="#AAAAAA"/>
<path d="M478.325 475.37C478.327 475.993 478.144 476.603 477.799 477.123C477.454 477.642 476.963 478.047 476.387 478.287C475.812 478.527 475.178 478.591 474.566 478.471C473.955 478.35 473.393 478.051 472.951 477.611C472.509 477.171 472.208 476.61 472.086 475.998C471.964 475.387 472.026 474.753 472.264 474.177C472.502 473.601 472.906 473.108 473.424 472.762C473.942 472.415 474.551 472.23 475.175 472.23C476.009 472.23 476.808 472.56 477.399 473.149C477.989 473.738 478.322 474.536 478.325 475.37Z" fill="#AAAAAA"/>
<path d="M28.3349 475.37C28.3369 475.993 28.1538 476.603 27.8089 477.123C27.464 477.642 26.9727 478.047 26.3973 478.287C25.8219 478.527 25.1882 478.591 24.5765 478.471C23.9648 478.35 23.4026 478.051 22.9611 477.611C22.5195 477.171 22.2185 476.61 22.0962 475.998C21.9738 475.387 22.0356 474.753 22.2737 474.177C22.5119 473.601 22.9156 473.108 23.4338 472.762C23.952 472.415 24.5615 472.23 25.1849 472.23C26.0186 472.23 26.8183 472.56 27.4088 473.149C27.9992 473.738 28.3323 474.536 28.3349 475.37Z" fill="#AAAAAA"/>
<path d="M0.00488281 25.23H499.995" stroke="#AAAAAA" stroke-width="0.67" stroke-miterlimit="10"/>
<path d="M0.00488281 75.1801H499.995" stroke="#AAAAAA" stroke-width="0.67" stroke-miterlimit="10"/>
<path d="M0.00488281 125.12H499.995" stroke="#AAAAAA" stroke-width="0.67" stroke-miterlimit="10"/>
<path d="M0.00488281 175.07H499.995" stroke="#AAAAAA" stroke-width="0.67" stroke-miterlimit="10"/>
<path d="M0.00488281 225.02H499.995" stroke="#AAAAAA" stroke-width="0.67" stroke-miterlimit="10"/>
<path d="M0.00488281 274.97H499.995" stroke="#AAAAAA" stroke-width="0.67" stroke-miterlimit="10"/>
<path d="M0.00488281 324.91H499.995" stroke="#AAAAAA" stroke-width="0.67" stroke-miterlimit="10"/>
<path d="M0.00488281 374.86H499.995" stroke="#AAAAAA" stroke-width="0.67" stroke-miterlimit="10"/>
<path d="M0.00488281 424.81H499.995" stroke="#AAAAAA" stroke-width="0.67" stroke-miterlimit="10"/>
<path d="M0.00488281 474.76H499.995" stroke="#AAAAAA" stroke-width="0.67" stroke-miterlimit="10"/>
<path d="M474.765 0V499.99" stroke="#AAAAAA" stroke-width="0.67" stroke-miterlimit="10"/>
<path d="M424.815 0V499.99" stroke="#AAAAAA" stroke-width="0.67" stroke-miterlimit="10"/>
<path d="M374.865 0V499.99" stroke="#AAAAAA" stroke-width="0.67" stroke-miterlimit="10"/>
<path d="M324.915 0V499.99" stroke="#AAAAAA" stroke-width="0.67" stroke-miterlimit="10"/>
<path d="M274.975 0V499.99" stroke="#AAAAAA" stroke-width="0.67" stroke-miterlimit="10"/>
<path d="M225.025 0V499.99" stroke="#AAAAAA" stroke-width="0.67" stroke-miterlimit="10"/>
<path d="M175.075 0V499.99" stroke="#AAAAAA" stroke-width="0.67" stroke-miterlimit="10"/>
<path d="M125.125 0V499.99" stroke="#AAAAAA" stroke-width="0.67" stroke-miterlimit="10"/>
<path d="M75.1849 0V499.99" stroke="#AAAAAA" stroke-width="0.67" stroke-miterlimit="10"/>
<path d="M25.2349 0V499.99" stroke="#AAAAAA" stroke-width="0.67" stroke-miterlimit="10"/>
</g>
<defs>
<clipPath id="clip0_101_425">
<rect width="499.99" height="499.99" fill='none' transform="translate(0.00488281)"/>
</clipPath>
</defs>
</svg>
